<?xml version="1.0" encoding="UTF-8" standalone="no"?>
<!-- Created with Inkscape (http://www.inkscape.org/) -->

<svg
   width="225.50293"
   height="271.47925"
   viewBox="0 0 225.50293 271.47925"
   version="1.1"
   id="svg1"
   xml:space="preserve"
   inkscape:version="1.3.2 (091e20e, 2023-11-25, custom)"
   sodipodi:docname="dibujo.svg"
   inkscape:export-filename="dibujo(32).png"
   inkscape:export-xdpi="11.32"
   inkscape:export-ydpi="11.32"
   xmlns:inkscape="http://www.inkscape.org/namespaces/inkscape"
   xmlns:sodipodi="http://sodipodi.sourceforge.net/DTD/sodipodi-0.dtd"
   xmlns="http://www.w3.org/2000/svg"
   xmlns:svg="http://www.w3.org/2000/svg"><sodipodi:namedview
     id="namedview1"
     pagecolor="#ffffff"
     bordercolor="#666666"
     borderopacity="1.0"
     inkscape:showpageshadow="2"
     inkscape:pageopacity="0.0"
     inkscape:pagecheckerboard="0"
     inkscape:deskcolor="#d1d1d1"
     inkscape:document-units="px"
     inkscape:zoom="2.5121626"
     inkscape:cx="193.65785"
     inkscape:cy="117.03064"
     inkscape:window-width="3840"
     inkscape:window-height="2054"
     inkscape:window-x="3829"
     inkscape:window-y="-11"
     inkscape:window-maximized="1"
     inkscape:current-layer="g1"
     showguides="false" /><defs
     id="defs1"><rect
       x="290.38727"
       y="408.61209"
       width="192.86172"
       height="50.355022"
       id="rect18" /><rect
       x="292.37759"
       y="406.8208"
       width="193.2598"
       height="42.990849"
       id="rect17" /></defs><g
     inkscape:label="logo"
     inkscape:groupmode="layer"
     id="layer1"
     transform="translate(-272.27536,-187.6869)"><g
       id="g1"
       transform="translate(114.27818,121.03353)"
       inkscape:label="g1"><rect
         style="display:inline;fill:#b6bbd5;fill-opacity:1"
         id="rect19"
         width="225.50293"
         height="271.47925"
         x="157.99718"
         y="66.653374"
         inkscape:label="Marco" /><rect
         style="fill:#f8f9fb;fill-opacity:1;stroke-width:0.998208"
         id="rect20"
         width="221.72133"
         height="267.2179"
         x="159.98749"
         y="68.643684"
         inkscape:label="marco2" /><text
         xml:space="preserve"
         transform="matrix(1.3107556,0,0,1.148221,-237.02428,-184.69292)"
         id="text17"
         style="font-style:normal;font-variant:normal;font-weight:bold;font-stretch:normal;font-size:42.6667px;line-height:1.25;font-family:'Times New Roman';-inkscape-font-specification:'Times New Roman,  Bold';text-align:center;letter-spacing:1px;word-spacing:0.03px;white-space:pre;shape-inside:url(#rect18);display:inline;fill:#cd68a9;fill-opacity:1;stroke:none"
         x="53.819992"
         y="0"
         inkscape:label="texto ACIPE"><tspan
           x="323.18192"
           y="446.48318"
           id="tspan4"><tspan
             style="font-weight:normal;-inkscape-font-specification:'Times New Roman, '"
             id="tspan3">ACIPE</tspan></tspan></text><rect
         style="fill:#cd68a9;fill-opacity:1"
         id="rect21"
         width="214.7552"
         height="214.35718"
         x="163.57008"
         y="72.22625"
         inkscape:label="triangulo_rosa" /><path
         d="M 274.23111,170.74693 163.56948,286.58366 H 378.32534 V 72.226236 Z"
         style="fill:#7caecb"
         id="path22"
         sodipodi:nodetypes="ccccc" /><path
         style="display:inline;fill:#9392c7"
         d="m 204.71131,217.87636 -23.08559,-0.64185 v -10.05635 -10.05634 h 23.64865 23.64865 V 181.64391 166.166 l -8.95025,-1.4312 c -17.68748,-2.82835 -29.29436,-18.87843 -29.32548,-40.5515 -0.0168,-11.67215 4.81884,-37.42184 7.02753,-37.42184 0.96634,0 4.19808,1.112241 7.18165,2.471651 5.15706,2.34971 5.41229,3.43726 5.17354,22.044829 -0.28876,22.50623 3.59942,31.78982 13.3143,31.78982 h 5.57871 V 114.03303 84.998305 l 9.05459,-3.622927 c 4.98002,-1.99261 9.54083,-3.622927 10.13513,-3.622927 0.59431,0 1.08055,15.2027 1.08055,33.783779 v 33.78379 h 6.85913 c 4.38127,0 8.97158,-2.11245 12.70672,-5.84758 5.65629,-5.6563 5.80504,-6.50412 4.54726,-25.91812 l -1.30031,-20.070539 6.49977,-3.36116 c 3.57488,-1.848638 6.97563,-3.361161 7.55722,-3.361161 1.95517,0 8.17529,31.19681 8.17176,40.98515 -0.007,19.95885 -12.74497,33.71453 -33.80685,36.50849 l -11.53062,1.52959 0.51371,15.83906 0.51372,15.83906 -10.26782,9.9306 -10.66589,10.92577 z"
         id="path8"
         sodipodi:nodetypes="ccccccccsssssscccssscssscsscscccccc"
         inkscape:label="rama_morada" /><path
         style="display:inline;fill:#5176b7"
         d="m 227.99076,243.89143 v -25.42534 l 11.84668,-12.26439 9.65732,-9.47794 h 21.71439 21.71439 l 3.45562,-11.88689 c 3.39148,-11.66629 10.81073,-20.92852 20.92766,-26.1262 6.98605,-3.58916 29.3996,-3.12896 42.90219,0.88088 l 11.4771,3.40833 -3.56458,9.07453 c -2.62198,6.67491 -4.50657,8.71031 -7.12687,7.6972 -21.53583,-8.32666 -41.25512,-3.86334 -42.55634,9.63233 l -0.70577,7.31982 h 17.03459 17.0346 v 10.13513 c 0,9.64987 -0.30847,10.13514 -6.44241,10.13514 -3.54333,0 -11.14468,0.64452 -16.89189,1.43226 -8.97438,1.23008 -10.44949,2.16082 -10.44949,6.59329 0,6.85713 10.0603,14.49697 19.08993,14.49697 3.97166,0 11.8253,-1.38563 17.45253,-3.07918 l 10.23134,-3.07918 2.93133,8.88203 c 3.564,10.799 2.69583,11.56905 -17.2958,15.34121 -30.97037,5.84368 -49.95626,-5.44279 -55.96207,-33.26758 l -1.57994,-7.31982 h -21.0061 -22.39931 l -0.54911,11.02915 c -0.30998,6.22592 -0.79978,18.28332 -0.37635,26.663 l 0.3718,16.42997 -8.77595,0.0955 -12.15949,-0.3026 z"
         id="path1"
         inkscape:label="rama_azul"
         sodipodi:nodetypes="ccccccssscssscccsssssscssscccsscccc" /></g></g></svg>
